<svg width="64" height="64" viewBox="0 0 64 64" fill="none" xmlns="http://www.w3.org/2000/svg">
  <defs>
    <linearGradient id="primary-gradient-cost" x1="0" y1="0" x2="64" y2="64" gradientUnits="userSpaceOnUse">
      <stop stop-color="#FF6F61" />
      <stop offset="1" stop-color="#FF9F93" />
    </linearGradient>
  </defs>

  <!-- Coin/Tag Shape -->
  <circle cx="32" cy="32" r="22" stroke="url(#primary-gradient-cost)" stroke-width="2" fill="#2d2d2d" fill-opacity="0.5" />
  
  <!-- Inner Detail -->
  <path d="M32 18V46" stroke="#FF6F61" stroke-width="2" stroke-linecap="round" stroke-opacity="0.3" />
  <path d="M18 32H46" stroke="#FF6F61" stroke-width="2" stroke-linecap="round" stroke-opacity="0.3" />

  <!-- Abstract Dollar/Value Sign -->
  <path d="M28 26C28 23.7909 29.7909 22 32 22C34.2091 22 36 23.7909 36 26C36 28.2091 32 30 32 32C32 34 28 35.7909 28 38C28 40.2091 29.7909 42 32 42C34.2091 42 36 40.2091 36 38" stroke="#FF6F61" stroke-width="3" stroke-linecap="round" stroke-linejoin="round" />
  <line x1="32" y1="18" x2="32" y2="22" stroke="#FF6F61" stroke-width="3" stroke-linecap="round" />
  <line x1="32" y1="42" x2="32" y2="46" stroke="#FF6F61" stroke-width="3" stroke-linecap="round" />

  <!-- Sparkles -->
  <circle cx="50" cy="18" r="2" fill="#FF6F61" />
  <circle cx="14" cy="46" r="1.5" fill="#FF6F61" fill-opacity="0.6" />
</svg>
