<svg width="64" height="64" viewBox="0 0 64 64" fill="none" xmlns="http://www.w3.org/2000/svg">
  <defs>
    <linearGradient id="primary-gradient-tuned" x1="0" y1="0" x2="64" y2="64" gradientUnits="userSpaceOnUse">
      <stop stop-color="#FF6F61" />
      <stop offset="1" stop-color="#FF9F93" />
    </linearGradient>
  </defs>

  <!-- Thumbnail Frame -->
  <rect x="8" y="14" width="48" height="36" rx="4" fill="#2d2d2d" stroke="url(#primary-gradient-tuned)" stroke-width="2" />

  <!-- Composition Lines (Rule of Thirds) -->
  <line x1="24" y1="14" x2="24" y2="50" stroke="#FF6F61" stroke-width="1" stroke-opacity="0.2" />
  <line x1="40" y1="14" x2="40" y2="50" stroke="#FF6F61" stroke-width="1" stroke-opacity="0.2" />
  <line x1="8" y1="26" x2="56" y2="26" stroke="#FF6F61" stroke-width="1" stroke-opacity="0.2" />
  <line x1="8" y1="38" x2="56" y2="38" stroke="#FF6F61" stroke-width="1" stroke-opacity="0.2" />

  <!-- Highlight/Sparkle -->
  <path d="M48 10L49.5 13L52.5 14.5L49.5 16L48 19L46.5 16L43.5 14.5L46.5 13L48 10Z" fill="#FF6F61" />
  <path d="M54 48L55 50L57 51L55 52L54 54L53 52L51 51L53 50L54 48Z" fill="#FF6F61" fill-opacity="0.7" />

  <!-- Subject Placeholder -->
  <circle cx="24" cy="32" r="8" fill="url(#primary-gradient-tuned)" fill-opacity="0.2" />
</svg>
