<svg width="29" height="29" viewBox="0 0 29 29" fill="none" xmlns="http://www.w3.org/2000/svg">
<path d="M14.312 3.7579C21.3766 1.34952 24.9089 0.145331 26.8088 2.04522C28.7086 3.94512 27.5044 7.47744 25.0962 14.5421L23.4561 19.353C21.6066 24.7785 20.6817 27.4913 19.1572 27.7158C18.7474 27.7761 18.3232 27.7399 17.9176 27.6097C16.4095 27.1255 15.6122 24.2652 14.0176 18.5447C13.664 17.2759 13.4872 16.6414 13.0844 16.1568C12.9675 16.0162 12.8379 15.8866 12.6973 15.7697C12.2127 15.3669 11.5782 15.19 10.3094 14.8364C4.58885 13.2418 1.72859 12.4446 1.24437 10.9364C1.11418 10.5309 1.07785 10.1066 1.13821 9.69679C1.36271 8.17233 4.07551 7.24753 9.50108 5.39794L14.312 3.7579Z" stroke="white" stroke-width="2.21959"/>
</svg>
