<svg width="176" height="177" viewBox="0 0 176 177" fill="none" xmlns="http://www.w3.org/2000/svg">
<path d="M51.7815 30.5819L51.2779 31.7838L53.3364 36.8124L55.395 41.841L39.5741 48.3177C24.8413 54.349 23.5889 54.896 21.7177 56.2801C14.6967 61.5235 11.0146 70.3099 12.1998 78.9922C12.5305 81.2259 12.9894 82.5145 17.0102 92.3363C20.4412 100.717 21.859 103.845 23.1509 105.994C35.615 126.712 58.5521 137.786 82.3893 134.62C87.3407 133.966 91.6208 132.763 97.3258 130.428L102.531 128.297L103.034 127.095L103.538 125.893L101.829 121.717L100.119 117.542L98.9173 117.038C97.7689 116.581 97.5389 116.606 95.3922 117.485C80.9882 123.313 69.0118 123.581 56.4659 118.348C45.5123 113.733 37.8359 106.472 32.4017 95.5463C30.0625 90.8386 26.174 81.3402 25.5037 78.6961C24.199 73.4963 26.2137 68.6886 30.8357 65.9724C33.3553 64.4946 98.7561 37.721 101.589 37.0078C106.73 35.7272 111.62 37.7766 114.312 42.3398C115.689 44.695 119.926 55.0462 121.511 59.9251C122.188 61.9141 122.919 64.7052 123.184 66.1075C123.715 69.0831 124.635 70.4918 126.125 70.7749C127.431 71.0299 132.956 70.5192 134.161 70.0256C136.661 69.0024 136.885 67.5372 135.532 61.4644C134.798 58.16 134.122 56.3421 130.089 46.4908C125.924 36.316 125.335 35.0462 124.005 33.2218C118.761 26.2008 109.975 22.5187 101.293 23.7039C98.988 24.0293 97.7115 24.5176 82.9787 30.5489L67.1578 37.0256L65.0992 31.997L63.0406 26.9684L61.8387 26.4647L60.6368 25.9611L56.461 27.6705L52.2852 29.38L51.7815 30.5819Z" fill="#4B4B4B"/>
<path d="M51.4649 79.8788C46.417 84.6578 48.2734 93.8894 54.8338 96.663C59.961 98.7872 66.1952 96.2351 68.3609 91.1253C71.1105 84.506 65.919 76.6054 58.9049 76.8331C56.3917 76.9005 53.2745 78.1766 51.4649 79.8788Z" fill="#4B4B4B"/>
<path d="M89.1057 64.4697C84.0577 69.2487 85.9142 78.4802 92.4746 81.2538C99.0938 84.0034 106.994 78.8119 106.767 71.7977C106.656 67.5855 104.123 63.7468 100.464 62.189C96.7874 60.6726 92.1569 61.6068 89.1057 64.4697Z" fill="#4B4B4B"/>
<path d="M128.976 86.2941C128.884 86.5722 128.882 90.0065 128.901 93.9126C128.996 102.698 128.502 105.098 125.765 108.896C125.45 109.3 122.95 111.834 120.169 114.518C117.4 117.231 115.036 119.675 114.885 119.977C114.746 120.309 114.838 120.786 115.095 121.162C115.524 121.707 116.545 121.769 122.322 121.705C130.281 121.606 131.581 121.76 134.67 122.933C137.464 124.056 139.169 125.452 144.947 131.43C149.267 135.945 149.499 136.091 150.679 135.367C151.26 135.026 151.266 134.955 151.176 128.194C151.072 120.476 151.168 119.201 152.22 116.401C153.334 113.336 154.181 112.302 160.241 106.388C164.714 102.05 165.386 101.26 165.234 100.636C165.136 100.229 164.826 99.8071 164.553 99.6441C164.251 99.4931 161.235 99.423 157.842 99.4386C150.266 99.5527 147.987 99.3528 145.483 98.3521C142.647 97.2125 141.507 96.2717 136.164 90.768C133.521 88.0041 131.148 85.6452 130.887 85.5116C130.639 85.4074 130.125 85.4115 129.772 85.556C129.419 85.7005 129.051 86.0575 128.976 86.2941Z" fill="#4B4B4B"/>
</svg>
