<svg width="32" height="32" viewBox="0 0 32 32" fill="none" xmlns="http://www.w3.org/2000/svg">
<path d="M15.1221 0.221197C15.0116 0.350229 14.2566 2.19355 13.4094 4.29493C11.531 9.03226 10.7391 10.212 8.43711 11.6498C8.17929 11.7972 6.28244 12.6083 4.20144 13.4378C2.12044 14.2857 0.315671 15.0783 0.168343 15.2074C0.0210151 15.3548 -0.0342328 15.6313 0.0210151 15.8894C0.131511 16.2765 0.665574 16.5346 3.77787 17.7696C8.06879 19.4654 8.73177 19.8341 10.1314 21.1429C11.3837 22.3594 11.9914 23.4839 13.7777 27.9631C14.496 29.8249 15.1774 31.3364 15.251 31.3364C15.3431 31.3364 15.5273 31.3917 15.6746 31.447C16.1534 31.6313 16.5033 31.023 17.8108 27.6313C19.4683 23.4286 19.7998 22.7834 20.9784 21.4931C22.2491 20.0922 22.9305 19.7235 27.4792 17.8802C30.8309 16.5346 31.365 16.2581 31.4202 15.8894C31.4571 15.6498 31.3834 15.3548 31.2729 15.2074C31.144 15.0599 29.5418 14.3594 27.7186 13.6221C23.6303 12.0184 22.4517 11.4101 21.3283 10.3226C20.0576 9.08756 19.6524 8.3318 17.995 4.20276C17.1847 2.13825 16.4296 0.350229 16.3191 0.221197C16.2087 0.110598 15.9324 0 15.7114 0C15.4904 0 15.2142 0.110598 15.1221 0.221197Z" fill="white"/>
</svg>
